<svg width="0" height="0" class="hidden">
  <symbol fill="none" xmlns="http://www.w3.org/2000/svg" viewBox="0 0 24 24" id="bluetooth">
    <g clip-path="url(#clip0)">
      <path d="M18.205 17.521L13.164 12l5.041-5.52a.86.86 0 00-.089-1.244L11.987.196a.858.858 0 00-1.405.663v8.315L7.064 5.32a.86.86 0 00-1.269 1.16l4.787 5.242v.556l-4.787 5.243a.859.859 0 101.269 1.159l3.518-3.853v8.314a.86.86 0 001.405.664l6.13-5.04a.86.86 0 00.088-1.244zM12.301 2.678l4.025 3.31-4.025 4.409V2.678zm0 18.644v-7.718l4.025 4.408-4.025 3.31z" fill="#000"></path>
    </g>
    <defs>
      <clipPath id="clip0">
        <path fill="#fff" d="M0 0h24v24H0z"></path>
      </clipPath>
    </defs>
  </symbol>
  <symbol fill="none" xmlns="http://www.w3.org/2000/svg" viewBox="0 0 32 32" id="charge">
    <g clip-path="url(#clip0)" fill="#000">
      <path d="M26.08 11.227v-2.1a.706.706 0 00-.706-.707h-3.278a.706.706 0 00-.706.706v2.101a.706.706 0 00-.642.703v3.796a1.57 1.57 0 001.568 1.568h.713v7.52c0 .978-.796 1.774-1.774 1.774h-7.717a1.776 1.776 0 01-1.774-1.774v-1.52h1.501c.39 0 .706-.316.706-.706v-2.29h.75a2.12 2.12 0 002.118-2.118v-6.402c0-.952-.632-1.76-1.498-2.025v-2.42a.706.706 0 00-.706-.706h-.988V4.706a.706.706 0 10-1.412 0v1.92H9.881v-1.92a.706.706 0 00-1.411 0v1.92h-.988a.706.706 0 00-.706.707v2.42a2.121 2.121 0 00-1.498 2.025v6.402a2.12 2.12 0 002.118 2.118h.75v2.29c0 .39.315.706.705.706h1.501v1.52A3.19 3.19 0 0013.538 28h7.717a3.19 3.19 0 003.186-3.186v-7.52h.713a1.57 1.57 0 001.568-1.568V11.93a.706.706 0 00-.642-.703zM13.929 8.04v1.62H8.188V8.039h5.74zm-7.24 10.14v-6.402c0-.389.317-.706.707-.706h7.325c.39 0 .706.317.706.706v6.402c0 .39-.317.706-.706.706H7.396a.707.707 0 01-.706-.706zm2.868 2.118h3.002v1.584H9.558v-1.584zM24.668 9.832v1.392h-1.866V9.832h1.866zm.642 5.894c0 .086-.07.156-.156.156h-2.838a.157.157 0 01-.156-.156v-3.09h3.15v3.09z"></path>
      <path d="M10.164 15.685h.716l-.312.724a.706.706 0 101.296.559l.737-1.71a.706.706 0 00-.648-.985h-.716l.312-.723a.706.706 0 00-1.296-.56l-.737 1.71a.706.706 0 00.648.985z"></path>
    </g>
    <defs>
      <clipPath id="clip0">
        <path fill="#fff" transform="translate(4 4)" d="M0 0h24v24H0z"></path>
      </clipPath>
    </defs>
  </symbol>
  <symbol fill="none" xmlns="http://www.w3.org/2000/svg" viewBox="0 0 32 32" id="range">
    <path d="M9.25 8.5A5.256 5.256 0 004 13.75c0 2.694 4.212 7.465 4.692 8.001A.754.754 0 009.25 22a.754.754 0 00.558-.249c.48-.536 4.692-5.307 4.692-8.001A5.256 5.256 0 009.25 8.5zm0 11.605C7.612 18.163 5.5 15.181 5.5 13.75A3.755 3.755 0 019.25 10 3.755 3.755 0 0113 13.75c0 1.43-2.112 4.413-3.75 6.355z" fill="#000"></path>
    <path d="M9.25 11.5C8.01 11.5 7 12.51 7 13.75S8.01 16 9.25 16s2.25-1.01 2.25-2.25-1.01-2.25-2.25-2.25zm0 3a.75.75 0 110-1.5.75.75 0 010 1.5zm18-10.5h-6a.75.75 0 00-.75.75v7.5a.75.75 0 001.5 0V10h5.25a.75.75 0 00.75-.75v-4.5a.75.75 0 00-.75-.75zm-.75 4.5H22v-3h4.5v3zm-1.5 12h-7.5c-.826 0-1.5-.674-1.5-1.5s.674-1.5 1.5-1.5h1.638c.31.872 1.135 1.5 2.112 1.5 1.24 0 2.25-1.01 2.25-2.25s-1.01-2.25-2.25-2.25c-.977 0-1.802.629-2.112 1.5H17.5c-1.655 0-3 1.346-3 3s1.345 3 3 3H25c.826 0 1.5.674 1.5 1.5S25.826 25 25 25H11.362a2.246 2.246 0 00-2.112-1.5C8.01 23.5 7 24.51 7 25.75S8.01 28 9.25 28c.976 0 1.802-.628 2.112-1.5H25c1.654 0 3-1.346 3-3s-1.346-3-3-3zM21.25 16a.75.75 0 110 1.5.75.75 0 010-1.5zm-12 10.5a.75.75 0 110-1.5.75.75 0 010 1.5z" fill="#000"></path>
  </symbol>
  <symbol fill="none" xmlns="http://www.w3.org/2000/svg" viewBox="0 0 32 32" id="warranty">
    <path d="M28 5.781H4v17.446h14.764v3.027l2.624-1.282 2.624 1.282v-3.027H28V5.78zm-6.612 14.632a2.393 2.393 0 01-2.39-2.39 2.393 2.393 0 012.39-2.391 2.393 2.393 0 012.391 2.39 2.393 2.393 0 01-2.39 2.391zm0 2.994l-1.217.595v-2.384a3.776 3.776 0 002.435 0v2.384l-1.218-.595zm5.206-1.587h-2.582v-1.057a3.786 3.786 0 001.173-2.74 3.801 3.801 0 00-3.797-3.797 3.801 3.801 0 00-3.796 3.796c0 1.077.45 2.05 1.172 2.74v1.058H5.406V7.187h21.188V21.82z" fill="#000"></path>
    <path d="M6.814 11.41h18.372v1.407H6.814V11.41zm2.111-2.814h14.15v1.406H8.925V8.596zm-2.111 10.41h6.84v1.406h-6.84v-1.406zm0-2.816h6.84v1.407h-6.84v-1.406z" fill="#000"></path>
  </symbol>
  <symbol fill="none" xmlns="http://www.w3.org/2000/svg" viewBox="0 0 32 32" id="weight">
    <path d="M24.337 10.4h-5.363a3.885 3.885 0 00.906-2.497A3.907 3.907 0 0015.977 4a3.907 3.907 0 00-3.903 3.903c0 .949.34 1.82.906 2.497H7.617L4.28 28h23.392l-3.336-17.6zm-8.36-4.994a2.5 2.5 0 012.497 2.497 2.5 2.5 0 01-2.497 2.497 2.5 2.5 0 01-2.497-2.497 2.5 2.5 0 012.497-2.497zm-7.196 6.4h14.392l2.802 14.788H5.979l2.802-14.788z" fill="#000"></path>
    <path d="M16.006 16.403h-1.597l-2.231 2.228v-2.228H11.03v5.62h1.147v-1.921l.578-.564 1.748 2.485h1.481l-2.41-3.273 2.43-2.347z" fill="#000"></path>
    <path d="M18.275 20h1.515v.617a2.339 2.339 0 01-.494.26 2.065 2.065 0 01-.778.153c-.303 0-.592-.067-.86-.2a1.28 1.28 0 01-.588-.587c-.14-.275-.212-.628-.212-1.048 0-.34.06-.66.18-.948.066-.16.162-.309.283-.444.115-.128.273-.234.467-.315.198-.083.44-.125.72-.125.227 0 .435.04.619.117a.96.96 0 01.398.288c.097.127.181.31.25.543l.065.22 1.055-.29-.056-.222c-.097-.377-.243-.69-.434-.93a1.913 1.913 0 00-.804-.576 2.937 2.937 0 00-1.097-.198c-.55 0-1.045.116-1.47.344a2.33 2.33 0 00-1.006 1.072 3.434 3.434 0 00-.338 1.506c0 .542.115 1.04.342 1.481.233.452.581.802 1.036 1.04.446.234.947.353 1.488.353.402 0 .799-.073 1.18-.218a4.099 4.099 0 001.1-.638l.087-.07v-2.258l-2.648.004v1.07z" fill="#000"></path>
  </symbol>
</svg>