<svg width="0" height="0" class="hidden">
  <symbol fill="none" xmlns="http://www.w3.org/2000/svg" viewBox="0 0 91 91" id="toggle-btn">
    <rect width="91" height="91" rx="4" fill="#9A9A9A"></rect>
    <g clip-path="url(#clip0)" fill="#fff">
      <path d="M46 35.111c-6.004 0-10.889 4.885-10.889 10.889S39.996 56.889 46 56.889 56.889 52.004 56.889 46c0-6.005-4.885-10.889-10.889-10.889zm0 20.222c-5.147 0-9.333-4.186-9.333-9.333s4.186-9.333 9.333-9.333 9.333 4.186 9.333 9.333-4.186 9.333-9.333 9.333z"></path>
      <path d="M64.838 41.333h-1.57c-.4-1.487-.99-2.91-1.758-4.244l1.11-1.11a2.15 2.15 0 00.633-1.528c0-.578-.225-1.121-.633-1.53l-3.542-3.541c-.816-.816-2.24-.818-3.059 0l-1.109 1.109a17.772 17.772 0 00-4.243-1.757v-1.57c0-1.192-.97-2.162-2.163-2.162h-5.008c-1.193 0-2.163.97-2.163 2.162v1.57c-1.486.4-2.909.99-4.244 1.758l-1.11-1.11c-.817-.818-2.241-.816-3.058 0l-3.541 3.542a2.15 2.15 0 00-.633 1.53c0 .577.224 1.12.633 1.529l1.109 1.109a17.705 17.705 0 00-1.757 4.243h-1.57c-1.192 0-2.162.97-2.162 2.163v5.008c0 1.193.97 2.163 2.162 2.163h1.57c.4 1.486.99 2.909 1.758 4.244l-1.11 1.11a2.15 2.15 0 00-.633 1.528c0 .578.225 1.121.633 1.53l3.542 3.541c.816.818 2.241.819 3.059 0l1.109-1.109a17.798 17.798 0 004.244 1.758v1.57c0 1.192.97 2.162 2.162 2.162h5.008c1.193 0 2.163-.97 2.163-2.162v-1.57c1.486-.4 2.909-.99 4.244-1.758l1.11 1.11c.817.818 2.24.816 3.058 0l3.541-3.542a2.15 2.15 0 00.633-1.53 2.15 2.15 0 00-.633-1.529l-1.109-1.109a17.798 17.798 0 001.758-4.244h1.57c1.192 0 2.162-.97 2.162-2.163v-5.008a2.166 2.166 0 00-2.163-2.163zm.606 7.171a.607.607 0 01-.606.607h-2.794l-.14.601a16.245 16.245 0 01-2.032 4.909l-.327.524 1.975 1.975a.607.607 0 010 .859l-3.541 3.54a.607.607 0 01-.86 0l-1.974-1.974-.524.327a16.208 16.208 0 01-4.909 2.032l-.6.14v2.794a.607.607 0 01-.608.606h-5.008a.607.607 0 01-.607-.606v-2.794l-.601-.14a16.245 16.245 0 01-4.909-2.032l-.524-.327-1.975 1.975a.607.607 0 01-.859 0l-3.54-3.541a.607.607 0 010-.86l1.974-1.974-.327-.524a16.208 16.208 0 01-2.032-4.909l-.14-.6h-2.794a.607.607 0 01-.606-.608v-5.008c0-.335.272-.607.606-.607h2.794l.14-.601a16.228 16.228 0 012.032-4.909l.327-.524-1.975-1.975a.607.607 0 010-.859l3.541-3.54a.607.607 0 01.86 0l1.974 1.974.524-.327a16.208 16.208 0 014.909-2.032l.6-.14v-2.794c0-.334.273-.606.608-.606h5.008c.335 0 .607.272.607.606v2.794l.601.14a16.245 16.245 0 014.909 2.032l.524.327 1.975-1.975a.607.607 0 01.859 0l3.54 3.541a.607.607 0 010 .86l-1.974 1.974.327.524a16.19 16.19 0 012.032 4.909l.14.6h2.794c.334 0 .606.273.606.608v5.008z"></path>
      <path d="M46 38.222c-4.289 0-7.778 3.49-7.778 7.778 0 4.289 3.49 7.778 7.778 7.778 4.289 0 7.778-3.49 7.778-7.778 0-4.289-3.49-7.778-7.778-7.778zm0 14A6.23 6.23 0 0139.778 46 6.23 6.23 0 0146 39.778 6.23 6.23 0 0152.222 46 6.23 6.23 0 0146 52.222z"></path>
    </g>
    <defs>
      <clipPath id="clip0">
        <path fill="#fff" transform="translate(25 25)" d="M0 0h42v42H0z"></path>
      </clipPath>
    </defs>
  </symbol>
</svg>
